<svg width="32" height="32" viewBox="0 0 32 32" fill="none" xmlns="http://www.w3.org/2000/svg">
<path d="M26.8891 13.1669C26.0324 11.3412 25.1471 9.45379 24.7091 7.34166C24.6755 6.97183 24.274 2.92859 22.6292 0.949455C22.4204 0.698513 21.9554 0.672197 21.0291 0.619331C20.0333 0.56247 18.6696 0.484931 17.1722 0.0899577C16.4807 -0.0926114 15.8994 0.00302205 15.4438 0.374031C14.6626 1.01006 14.3249 2.41584 14.4405 4.55143L14.4457 4.64424C14.4483 4.67714 14.4513 4.70956 14.456 4.73799C14.5371 5.25562 14.7502 5.74317 15.0723 6.14798L15.0751 6.15151C15.237 6.35428 15.4772 6.47998 15.7363 6.49291C16.2166 6.51711 16.9654 6.51053 17.7032 6.32632C18.0841 6.23116 18.4011 5.95414 18.5514 5.58551C18.6957 5.23165 18.6243 4.8705 18.4734 4.53263C18.3879 4.34067 18.2993 4.26524 18.2342 4.28663C17.5211 4.5223 17.0418 4.53122 17.0049 4.52746C16.8352 4.52253 16.7018 4.38108 16.7067 4.21121C16.7114 4.04156 16.8545 3.90153 17.023 3.91304C17.0211 3.9128 17.2908 3.91069 17.8938 3.71144C18.1409 3.6292 18.6132 3.58549 18.9972 4.21074C19.2946 4.69476 19.3397 5.28051 19.1205 5.81766C18.8964 6.367 18.4225 6.78007 17.8522 6.92269C17.2361 7.07659 16.6228 7.11888 16.1343 7.11888C16.0928 7.11888 16.0523 7.11864 16.0129 7.11794C15.6632 7.11418 15.4342 7.48237 15.5916 7.79439L15.7758 8.15952C16.2307 9.0613 16.855 9.57751 17.8634 9.52374C20.3465 9.39122 20.3869 9.55734 20.5756 10.5844C21.1886 13.9239 20.9868 16.7023 20.6905 18.2434C20.4913 19.2793 20.3026 20.2685 20.4097 21.581C17.1299 18.92 13.3408 19.9854 11.8563 21.0885C8.00014 17.9294 3.95615 19.2483 2.80908 19.726V30.6938C4.064 31.5834 5.52735 31.809 6.88874 31.8715C9.58258 31.9955 11.5992 30.8966 11.8617 30.7662C13.261 31.585 14.8293 32 16.5636 32C18.1433 31.9998 19.8594 31.6595 21.7046 30.9782C22.3489 30.7401 22.8404 30.4676 23.2356 30.2486C23.7041 29.989 24.0427 29.801 24.3787 29.8001C25.2392 29.7949 26.0639 29.5045 26.7007 28.9821C27.2563 28.5261 27.4878 28.1099 27.5265 27.4981C27.551 27.1088 27.6419 26.7502 27.797 26.4323C30.5061 20.8723 28.7495 17.1294 26.8895 13.1667L26.8891 13.1669ZM20.678 28.7411C19.3356 29.3097 18.0588 29.4998 16.9526 29.4998C14.7989 29.4998 13.2907 28.7801 13.1967 28.7342C13.0445 28.6597 12.9815 28.4758 13.0557 28.3235C13.13 28.1712 13.3144 28.1076 13.4665 28.1818C13.4991 28.1976 16.7484 29.738 20.4379 28.1752C20.5942 28.1085 20.7746 28.1823 20.8406 28.3383C20.9071 28.4946 20.8343 28.6748 20.6778 28.741L20.678 28.7411ZM27.2392 23.5399C27.1804 23.6311 27.0815 23.6809 26.9805 23.6809C26.9234 23.6809 26.8658 23.6652 26.8144 23.632C26.6717 23.5402 26.6302 23.3501 26.722 23.2072C27.5115 21.9791 26.9544 19.2222 26.9488 19.1945C26.9145 19.0281 27.0211 18.8658 27.1875 18.8312C27.3534 18.7962 27.5162 18.9036 27.5507 19.07C27.5761 19.1933 28.1642 22.1008 27.2392 23.5399Z" fill="#097FD9"/>
</svg>
