<svg width="32" height="32" viewBox="0 0 32 32" fill="none" xmlns="http://www.w3.org/2000/svg">
<path d="M27.7658 4.01186C27.6683 4.08999 27.5668 4.16403 27.4731 4.24215C27.3289 4.37091 27.1454 4.43733 26.9619 4.43733C26.7433 4.43733 26.5288 4.34368 26.3726 4.16811C26.0917 3.84418 26.1227 3.34846 26.4507 3.06756C26.5912 2.94261 26.7474 2.82964 26.8996 2.71232C26.1346 1.69372 25.2255 0.776651 24.1914 0H7.80888C6.77091 0.776651 5.86555 1.69372 5.10068 2.71232C5.25284 2.82556 5.40501 2.94261 5.54955 3.06756C5.87348 3.34848 5.90859 3.84038 5.62768 4.16811C5.4717 4.34368 5.25311 4.43733 5.03453 4.43733C4.85514 4.43733 4.67167 4.37091 4.52332 4.24215C4.42967 4.16403 4.33223 4.08999 4.2345 4.01186C3.01284 6.08391 2.34155 8.46849 2.34155 10.9268C2.34155 14.0213 3.35611 16.9443 5.2722 19.3755C5.30732 19.4186 5.33454 19.4654 5.35795 19.5122H8.3863C7.91809 18.9931 7.47306 18.4233 7.05167 17.803C6.80967 17.4478 6.90331 16.9599 7.25855 16.7183C7.6176 16.4763 8.10161 16.5699 8.34329 16.929C8.44482 17.0773 8.55017 17.2216 8.65551 17.3661C10.6807 20.137 13.2719 21.6589 15.9997 21.6589C18.7276 21.6589 21.3187 20.137 23.3439 17.3661C23.4493 17.2219 23.5508 17.0773 23.6562 16.929C23.8982 16.5699 24.3819 16.4763 24.7371 16.7183C25.0962 16.9603 25.1898 17.4481 24.9478 17.803C24.5264 18.4234 24.0776 18.9931 23.6094 19.5122H26.6415C26.665 19.4654 26.6922 19.4185 26.7273 19.3755C28.6439 16.9444 29.6584 14.0217 29.6584 10.9268C29.6584 8.46849 28.9833 6.08391 27.7658 4.01186ZM6.6028 5.39332C6.98145 5.19052 7.45346 5.33479 7.66036 5.71344C7.79292 5.96333 7.91405 6.22084 8.02729 6.48215C8.19497 6.88012 8.00769 7.33692 7.61353 7.50458C7.512 7.54759 7.41073 7.56692 7.3092 7.56692C7.00487 7.56692 6.71605 7.38753 6.58732 7.09082C6.49749 6.87632 6.39215 6.65774 6.28299 6.45085C6.07992 6.07221 6.22035 5.5961 6.6028 5.39332ZM8.02321 13.8769L7.77332 14.6184C7.66417 14.9424 7.35956 15.1492 7.03563 15.1492C6.94988 15.1492 6.86795 15.1337 6.78193 15.1062C6.37606 14.9696 6.15748 14.5248 6.29413 14.1151L6.54401 13.3774C6.68447 12.9677 7.12546 12.7491 7.53516 12.8896C7.94129 13.0262 8.16367 13.471 8.02321 13.8769ZM8.7568 10.6379C8.73339 11.0555 8.38986 11.3756 7.97638 11.3756H7.93337C7.50409 11.3522 7.17637 10.9852 7.19979 10.5559C7.20768 10.4155 7.21149 10.275 7.21149 10.1346C7.21149 10.0371 7.20768 9.94346 7.2036 9.84574C7.18808 9.41265 7.52372 9.05362 7.953 9.03404C8.38228 9.01446 8.74923 9.35416 8.7647 9.78727C8.76852 9.90051 8.7726 10.0176 8.7726 10.1346C8.7726 10.3023 8.76469 10.4702 8.7568 10.6379ZM16 18.3417C15.5669 18.3417 15.2196 17.9905 15.2196 17.5613C15.2196 17.491 15.2313 17.4287 15.2468 17.3661C15.3325 17.0305 15.6371 16.7808 16 16.7808C16.3629 16.7808 16.6672 17.0307 16.7532 17.3661C16.7688 17.4284 16.7805 17.4908 16.7805 17.561C16.7805 17.9903 16.4293 18.3417 16.0001 18.3417L16 18.3417ZM23.2431 10.6379C23.2314 10.4702 23.2276 10.3023 23.2276 10.1346C23.2276 10.0175 23.2314 9.90047 23.2355 9.78341C23.251 9.35413 23.6063 9.0223 24.0472 9.03401C24.4765 9.05361 24.8122 9.41647 24.7966 9.84571C24.7928 9.94316 24.7887 10.0368 24.7887 10.1345C24.7887 10.275 24.7925 10.4154 24.8004 10.5559C24.8238 10.9852 24.4961 11.3521 24.0627 11.3756H24.0197C23.6098 11.3756 23.2625 11.0555 23.2431 10.6379ZM25.2136 15.1062C25.1317 15.1334 25.046 15.1492 24.9638 15.1492C24.6398 15.1492 24.3355 14.9424 24.2261 14.6184L23.9762 13.8769C23.8357 13.471 24.0543 13.0262 24.464 12.8896C24.8698 12.7491 25.3146 12.9677 25.4551 13.3774L25.705 14.1189C25.8419 14.5248 25.6236 14.9696 25.2136 15.1062ZM25.7172 6.45052C25.604 6.65741 25.5027 6.87599 25.4088 7.09049C25.2839 7.3872 24.9951 7.56659 24.6907 7.56659C24.5892 7.56659 24.4879 7.54699 24.3864 7.50425C23.9884 7.33657 23.8049 6.87599 23.9726 6.48182C24.0818 6.22022 24.2067 5.96271 24.3396 5.71311C24.5424 5.33447 25.0146 5.19019 25.3971 5.39299C25.7758 5.59579 25.92 6.07186 25.7172 6.45052Z" fill="#097FD9"/>
<path d="M15.9999 23.2194C13.8848 23.2194 11.8555 22.4741 10.0526 21.073H5.3891C5.38529 21.8107 5.43973 22.5443 5.56087 23.2545L5.57638 23.3365C5.58019 23.3637 5.58809 23.3912 5.5919 23.4184C7.59377 23.4301 9.27571 23.7385 10.6768 24.195C13.4787 25.1083 15.1607 26.6185 15.9997 27.5862C16.8386 26.6185 18.5206 25.1083 21.3225 24.195C22.7235 23.7385 24.4053 23.4301 26.4074 23.4184C26.4112 23.3912 26.4153 23.3637 26.4229 23.3403L26.4346 23.2545C26.5596 22.5443 26.614 21.8107 26.6102 21.073H21.9434C20.1444 22.4738 18.115 23.2194 15.9999 23.2194Z" fill="#097FD9"/>
<path d="M16.7805 29.112V31.9999H23.5199C23.7268 31.4536 23.9454 30.9034 24.1678 30.3454C24.8663 28.5931 25.5765 26.7903 26.0566 24.9834C19.8946 25.1432 17.311 28.3471 16.7807 29.112H16.7805Z" fill="#097FD9"/>
<path d="M5.9436 24.9832C6.42351 26.7901 7.1337 28.593 7.83244 30.349C8.05103 30.9032 8.26961 31.4571 8.48031 31.9997L15.2197 32V29.1121C14.6927 28.351 12.1094 25.1433 5.94381 24.9832L5.9436 24.9832Z" fill="#097FD9"/>
</svg>
