<svg width="32" height="32" viewBox="0 0 32 32" fill="none" xmlns="http://www.w3.org/2000/svg">
<path d="M18.7585 2.20691H19.862V4.41379H18.7585V2.20691Z" fill="#097FD9"/>
<path d="M16.5518 2.20691H17.6552V4.41379H16.5518V2.20691Z" fill="#097FD9"/>
<path d="M16 6.62065H27.0344C27.3388 6.62065 27.5861 6.37287 27.5861 6.06893C27.5861 5.76499 27.3388 5.51721 27.0344 5.51721H16C15.6955 5.51721 15.4482 5.76499 15.4482 6.06893C15.4482 6.37287 15.6955 6.62065 16 6.62065Z" fill="#097FD9"/>
<path d="M20.9656 2.20691H22.069V4.41379H20.9656V2.20691Z" fill="#097FD9"/>
<path d="M23.1724 2.20691H24.2758V4.41379H23.1724V2.20691Z" fill="#097FD9"/>
<path d="M25.3794 2.20691H26.4828V4.41379H25.3794V2.20691Z" fill="#097FD9"/>
<path d="M25.3794 0.551721C25.3794 0.247783 25.1321 0 24.8276 0H18.207C17.9026 0 17.6553 0.247783 17.6553 0.551721V1.10344H25.3794V0.551721Z" fill="#097FD9"/>
<path d="M31.9357 13.793H13.7933V12.6896H31.582C31.0032 11.4869 29.8695 10.5953 28.4724 10.3625L25.3791 9.84651V7.72412H17.655V9.84651L14.5614 10.3623C13.1651 10.595 12.0306 11.4872 11.4519 12.6893L12.6896 12.6896V13.793H11.0985C11.0571 14.0314 11.0344 14.2763 11.0344 14.5258C11.0344 14.7415 11.0514 14.961 11.0852 15.1785L12.9379 27.0345H27.5859V28.138H13.1106L13.1565 28.4303C13.4791 30.4988 15.2331 32 17.3269 32H25.708C27.8018 32 29.5558 30.4988 29.8785 28.4303L29.9238 28.138H28.6896V27.0345H30.0964L31.9491 15.1773C31.9829 14.961 31.9999 14.7415 31.9999 14.5258C31.9999 14.2763 31.9772 14.0314 31.9358 13.793H31.9357ZM25.1688 24.0658C23.927 25.3072 22.2959 25.9278 20.6651 25.9278C19.0344 25.9278 17.4033 25.3071 16.1614 24.0658L15.7713 23.6756L24.7785 14.6684L25.1687 15.0585C27.6519 17.5418 27.6519 21.5821 25.1687 24.0658H25.1688Z" fill="#097FD9"/>
<path d="M24.1069 16.901C24.5719 17.6143 24.8274 18.4525 24.8274 19.3104C24.8274 21.7441 22.8474 23.7241 20.4136 23.7241C19.5558 23.7241 18.7176 23.4687 18.0043 23.0037L17.3528 23.6552C19.4191 25.3302 22.4678 25.2066 24.3896 23.2854C26.3113 21.3643 26.4342 18.315 24.7593 16.2493L24.1069 16.901Z" fill="#097FD9"/>
<path d="M23.7241 19.3102C23.7241 18.7452 23.5755 18.1925 23.3036 17.7036L18.8071 22.2001C19.2965 22.472 19.8488 22.6206 20.4137 22.6206C22.2393 22.6206 23.7241 21.1358 23.7241 19.3102Z" fill="#097FD9"/>
<path d="M3.31035 17.6551H6.01328C5.75663 16.3978 4.64287 15.4482 3.31035 15.4482H0.607422C0.863578 16.7056 1.97783 17.6551 3.31035 17.6551Z" fill="#097FD9"/>
<path d="M10.7546 20.2119C9.72852 19.3897 8.47551 18.8917 7.16891 18.7818C7.14477 15.4723 6.90044 12.1372 4.41377 12.1372V13.2406C5.87189 13.2406 6.04529 16.0904 6.06622 18.7859C2.67411 19.0689 0 21.9155 0 25.3782C0 29.0289 2.96996 31.9989 6.62065 31.9989C8.87212 31.9989 10.917 30.8794 12.1477 29.0058C12.1162 28.8723 12.0871 28.7375 12.0654 28.5996L10.7546 20.2119ZM6.62065 30.8964C3.57856 30.8964 1.10344 28.4212 1.10344 25.3791H2.20688C2.20688 27.8129 4.1869 29.7929 6.62065 29.7929V30.8964ZM6.62065 22.0688C5.38322 22.0688 4.41377 21.3417 4.41377 20.4137H5.51721C5.51721 20.6388 5.94701 20.9654 6.62065 20.9654C7.2943 20.9654 7.7241 20.6388 7.7241 20.4137H8.82754C8.82754 21.3417 7.85809 22.0688 6.62065 22.0688Z" fill="#097FD9"/>
</svg>
