<svg width="24" height="25" viewBox="0 0 24 25" fill="none" xmlns="http://www.w3.org/2000/svg">
<path fill-rule="evenodd" clip-rule="evenodd" d="M12 1.5C5.925 1.5 1 6.425 1 12.5C1 18.575 5.925 23.5 12 23.5C18.075 23.5 23 18.575 23 12.5C23 6.425 18.075 1.5 12 1.5ZM16.768 10.64C16.8558 10.5396 16.9226 10.4227 16.9646 10.2962C17.0065 10.1696 17.0227 10.0359 17.0123 9.90298C17.0018 9.77005 16.9648 9.64056 16.9036 9.52213C16.8423 9.40369 16.758 9.29871 16.6555 9.21334C16.5531 9.12798 16.4346 9.06396 16.3071 9.02506C16.1796 8.98616 16.0455 8.97316 15.9129 8.98683C15.7802 9.00049 15.6517 9.04055 15.5347 9.10463C15.4178 9.16872 15.3149 9.25554 15.232 9.36L10.932 14.519L8.707 12.293C8.5184 12.1108 8.2658 12.01 8.0036 12.0123C7.7414 12.0146 7.49059 12.1198 7.30518 12.3052C7.11977 12.4906 7.0146 12.7414 7.01233 13.0036C7.01005 13.2658 7.11084 13.5184 7.293 13.707L10.293 16.707C10.3913 16.8052 10.5089 16.8818 10.6384 16.9321C10.7679 16.9823 10.9065 17.005 11.0453 16.9986C11.184 16.9923 11.32 16.9572 11.4444 16.8954C11.5688 16.8337 11.6791 16.7467 11.768 16.64L16.768 10.64Z" fill="#E1E1E1"/>
</svg>
